<?xml version="1.0" standalone="no"?>
<!DOCTYPE svg PUBLIC "-//W3C//DTD SVG 20010904//EN"
 "http://www.w3.org/TR/2001/REC-SVG-20010904/DTD/svg10.dtd">
<svg version="1.0" xmlns="http://www.w3.org/2000/svg"
 width="290.000000pt" height="290.000000pt" viewBox="0 0 290.000000 290.000000"
 preserveAspectRatio="xMidYMid meet">
<metadata>
Created by potrace 1.14, written by Peter Selinger 2001-2017
</metadata>
<g transform="translate(0.000000,290.000000) scale(0.100000,-0.100000)"
fill="#000000" stroke="none">
<path d="M1336 2874 c-71 -13 -131 -25 -134 -28 -5 -6 -8 -34 -17 -176 -4 -58
-9 -116 -10 -130 -2 -14 -4 -30 -4 -37 -1 -6 -40 -32 -88 -58 -49 -26 -109
-63 -135 -81 l-46 -34 -140 69 c-77 38 -149 72 -160 75 -15 5 -34 -11 -93 -81
-40 -49 -76 -90 -79 -93 -45 -42 -47 -37 64 -189 l104 -143 -33 -76 c-19 -43
-44 -111 -56 -153 l-22 -75 -156 -38 c-86 -21 -160 -43 -166 -48 -6 -5 -10
-71 -10 -153 0 -155 -3 -149 52 -160 35 -7 278 -68 281 -71 2 -1 5 -8 6 -16
13 -64 26 -102 74 -215 l34 -82 -89 -123 c-50 -68 -93 -129 -97 -135 -4 -8 29
-57 89 -128 l95 -115 103 51 c56 27 123 61 150 74 l48 24 67 -45 c37 -25 104
-64 150 -86 79 -40 82 -43 83 -77 2 -54 8 -141 13 -186 2 -22 5 -54 5 -71 1
-30 4 -32 49 -39 26 -5 54 -10 62 -12 8 -2 56 -7 105 -10 l90 -5 27 58 c75
164 88 195 88 204 0 16 33 28 100 34 36 3 107 16 158 29 l92 23 115 -117 114
-116 131 75 c112 65 129 79 124 96 -3 12 -13 48 -23 81 -10 33 -28 97 -41 143
l-23 82 34 33 c138 134 230 297 284 505 24 96 29 137 30 266 l0 120 -682 3
-683 3 0 -207 0 -208 500 1 c275 1 500 -2 500 -7 0 -5 -14 -35 -31 -66 -172
-321 -553 -489 -911 -404 -154 36 -293 114 -400 224 -319 326 -317 842 4 1159
122 120 278 202 438 229 58 10 202 12 258 4 108 -15 236 -64 337 -128 l50 -32
217 0 c120 0 218 1 218 2 0 7 -101 125 -141 165 l-47 46 48 168 c27 93 48 169
47 169 -2 0 -21 11 -159 91 -59 35 -108 59 -110 54 -2 -5 -56 -63 -122 -130
-105 -108 -122 -121 -145 -116 -103 23 -187 37 -227 38 -55 1 -56 1 -139 192
-41 93 -64 136 -75 135 -8 -1 -73 -12 -144 -25z"/>
</g>
</svg>
